<svg width="42" height="68" viewBox="0 0 42 68" fill="none" xmlns="http://www.w3.org/2000/svg">
<path d="M38.264 66.952C39.48 66.952 40.632 66.856 41.72 66.664C40.632 60.968 39.448 55.4 38.168 49.96C36.952 44.52 35.672 39.112 34.328 33.736C32.984 28.36 31.608 22.952 30.2 17.512C28.792 12.136 27.32 6.664 25.784 1.096C25.272 1.096 24.472 1.032 23.384 0.904C22.296 0.776 21.08 0.712 19.736 0.712C18.328 0.712 16.888 0.776 15.416 0.904C14.008 0.968 12.792 1.16 11.768 1.48C8.888 11.848 6.52 22.472 4.664 33.352C2.808 44.296 1.432 55.304 0.536 66.376V66.472C0.92 66.92 1.752 67.24 3.032 67.432C4.312 67.624 5.688 67.72 7.16 67.72C8.632 67.784 10.04 67.784 11.384 67.72C12.728 67.656 13.656 67.56 14.168 67.432C14.424 66.152 14.584 64.072 14.648 61.192C14.712 58.312 14.872 54.856 15.128 50.824C15.384 46.792 15.8 42.344 16.376 37.48C17.016 32.616 17.976 27.592 19.256 22.408C20.472 27.592 21.464 32.328 22.232 36.616C23 40.968 23.672 44.968 24.248 48.616C24.824 52.264 25.368 55.624 25.88 58.696C26.392 61.768 27 64.648 27.704 67.336C27.704 67.464 27.768 67.528 27.896 67.528C28.984 67.272 30.104 67.112 31.256 67.048C32.408 67.048 33.56 67.048 34.712 67.048C35.928 67.048 37.112 67.016 38.264 66.952Z" fill="#419170"/>
</svg>
