<svg width="31" height="73" viewBox="0 0 31 73" fill="none" xmlns="http://www.w3.org/2000/svg">
<path d="M11.072 3.96C11.072 1.784 11.072 0.568 11.072 0.312H10.208C9.44 0.312 8.512 0.344 7.424 0.408C6.4 0.408 5.376 0.44 4.352 0.504C3.392 0.504 2.528 0.536 1.76 0.6C0.992 0.6 0.512 0.6 0.32 0.6C0.32 0.664 0.32 1.496 0.32 3.096C0.32 4.76 0.32 6.904 0.32 9.528C0.32 12.152 0.32 15.16 0.32 18.552C0.32 22.008 0.32 25.528 0.32 29.112C0.32 32.76 0.32 36.344 0.32 39.864C0.32 43.384 0.32 46.584 0.32 49.464C0.32 52.408 0.32 54.872 0.32 56.856C0.32 58.84 0.32 60.12 0.32 60.696V72.696C1.664 72.696 2.72 72.664 3.488 72.6C4.256 72.6 4.96 72.568 5.6 72.504C6.304 72.504 7.04 72.536 7.808 72.6C8.576 72.664 9.6 72.792 10.88 72.984V72.888C10.88 72.632 10.88 71.416 10.88 69.24C10.944 67.064 10.976 64.28 10.976 60.888C10.976 57.56 10.976 53.784 10.976 49.56C11.04 45.336 11.072 41.016 11.072 36.6C11.072 32.184 11.072 27.864 11.072 23.64C11.072 19.416 11.072 15.608 11.072 12.216C11.072 8.888 11.072 6.136 11.072 3.96ZM30.3845 3.96C30.3845 1.784 30.3845 0.568 30.3845 0.312H29.5205C28.7525 0.312 27.8245 0.344 26.7365 0.408C25.7125 0.408 24.6885 0.44 23.6645 0.504C22.7045 0.504 21.8405 0.536 21.0725 0.6C20.3045 0.6 19.8245 0.6 19.6325 0.6C19.6325 0.664 19.6325 1.496 19.6325 3.096C19.6325 4.76 19.6325 6.904 19.6325 9.528C19.6325 12.152 19.6325 15.16 19.6325 18.552C19.6325 22.008 19.6325 25.528 19.6325 29.112C19.6325 32.76 19.6325 36.344 19.6325 39.864C19.6325 43.384 19.6325 46.584 19.6325 49.464C19.6325 52.408 19.6325 54.872 19.6325 56.856C19.6325 58.84 19.6325 60.12 19.6325 60.696V72.696C20.9765 72.696 22.0325 72.664 22.8005 72.6C23.5685 72.6 24.2725 72.568 24.9125 72.504C25.6165 72.504 26.3525 72.536 27.1205 72.6C27.8885 72.664 28.9125 72.792 30.1925 72.984V72.888C30.1925 72.632 30.1925 71.416 30.1925 69.24C30.2565 67.064 30.2885 64.28 30.2885 60.888C30.2885 57.56 30.2885 53.784 30.2885 49.56C30.3525 45.336 30.3845 41.016 30.3845 36.6C30.3845 32.184 30.3845 27.864 30.3845 23.64C30.3845 19.416 30.3845 15.608 30.3845 12.216C30.3845 8.888 30.3845 6.136 30.3845 3.96Z" fill="#419170"/>
</svg>
